<svg xmlns="http://www.w3.org/2000/svg" xmlns:xlink="http://www.w3.org/1999/xlink" fill="none">
  <symbol id="icon" viewBox="0 0 1531 1646">
    <path
      d="M361.749 447.216H1458.35L1331.24 1114.9H501.626L361.749 447.216ZM361.749 447.216L313.516 184H72.3496"
      stroke="currentColor"
      stroke-width="144.7"
      stroke-linecap="round"
      stroke-linejoin="round"
    />
    <circle
      cx="535.387"
      cy="1476.65"
      r="163.993"
      fill="currentColor"
      stroke="currentColor"
      stroke-width="9.64666"
    />
    <circle
      cx="1268.53"
      cy="1476.65"
      r="163.993"
      fill="currentColor"
      stroke="currentColor"
      stroke-width="9.64666"
    />
    <path
      d="M919.154 202.829C819.36 202.829 738.178 284.011 738.178 383.805C738.178 483.599 826.556 499 926.35 499C1026.14 499 1100.13 483.599 1100.13 383.805C1100.13 284.011 1018.95 202.829 919.154 202.829ZM926.35 456.034C856.203 456.034 791.93 453.951 791.93 383.805C791.93 313.659 849.007 256.581 919.154 256.581C989.3 256.581 1046.38 313.659 1046.38 383.805C1046.38 453.951 996.496 456.034 926.35 456.034Z"
      fill="currentColor"
    />
    <path
      d="M1281.07 311.559L1210.41 298.256C1204.31 277.477 1195.99 257.438 1185.56 238.39L1226.15 178.977C1233.44 168.311 1232.09 153.949 1222.95 144.811L1158.15 80.0063C1149.01 70.8685 1134.65 69.5247 1123.98 76.8148L1064.57 117.397C1045.52 106.966 1025.48 98.6515 1004.7 92.5708L991.401 21.9039C989.015 9.20501 977.912 0 964.995 0H873.331C860.414 0 849.311 9.20501 846.926 21.9039L833.622 92.5708C812.844 98.6683 792.804 106.983 773.756 117.397L714.343 76.8148C703.677 69.5247 689.315 70.8685 680.177 80.0063L615.373 144.811C606.235 153.949 604.891 168.294 612.181 178.977L652.764 238.39C642.333 257.438 634.018 277.477 627.92 298.256L557.253 311.559C544.555 313.945 535.35 325.048 535.35 337.965V429.629C535.35 442.546 544.555 453.649 557.253 456.034L627.92 469.338C633.818 489.434 641.789 480.586 651.743 497.216C640.258 475.017 681.832 466.262 675.793 440.06C673.391 429.645 665.076 421.65 654.578 419.668L589.101 407.338V360.255L654.578 347.926C665.076 345.944 673.408 337.948 675.793 327.534C681.991 300.624 692.591 275.042 707.322 251.525C712.983 242.471 712.764 230.932 706.734 222.113L669.125 167.051L702.417 133.758L757.479 171.368C766.298 177.381 777.838 177.616 786.892 171.956C810.425 157.224 836.007 146.625 862.9 140.427C873.315 138.025 881.31 129.71 883.292 119.212L895.622 53.7351H942.705L955.034 119.212C957.016 129.71 965.012 138.042 975.426 140.427C1002.34 146.625 1027.9 157.224 1051.43 171.956C1060.49 177.616 1072.03 177.398 1080.85 171.368L1135.91 133.758L1169.2 167.051L1131.59 222.113C1125.56 230.932 1125.34 242.471 1131 251.525C1145.74 275.058 1156.33 300.641 1162.53 327.534C1164.94 337.948 1173.25 345.944 1183.75 347.926L1249.22 360.255V407.338L1183.75 419.668C1173.25 421.65 1164.92 429.645 1162.53 440.06C1156.33 466.969 1225.14 445.821 1210.41 469.338L1281.07 456.034C1293.77 453.649 1302.98 442.546 1302.98 429.629V337.965C1302.98 325.048 1293.77 313.961 1281.07 311.559Z"
      fill="currentColor"
    />
  </symbol>
</svg>
